<?xml version="1.0" standalone="no"?><!DOCTYPE svg PUBLIC "-//W3C//DTD SVG 1.1//EN" "http://www.w3.org/Graphics/SVG/1.1/DTD/svg11.dtd"><svg t="1515463647125" class="icon" style="" viewBox="0 0 1024 1024" version="1.1" xmlns="http://www.w3.org/2000/svg" p-id="6460" xmlns:xlink="http://www.w3.org/1999/xlink" width="32" height="32"><defs><style type="text/css"></style></defs><path d="M797.098667 471.253333l-40.746667 0L756.352 308.352C756.352 173.397333 646.954667 64 512 64c-134.954667 0-244.352 109.397333-244.352 244.352l0 162.901333L226.901333 471.253333c-22.485333 0-40.746667 18.218667-40.746667 40.746667l0 407.253333c0 22.528 18.218667 40.746667 40.746667 40.746667l570.197333 0c22.485333 0 40.746667-18.218667 40.746667-40.746667L837.845333 512C837.802667 489.472 819.584 471.253333 797.098667 471.253333zM674.901333 471.253333 349.098667 471.253333 349.098667 308.352c0-89.984 72.96-162.901333 162.901333-162.901333s162.901333 72.96 162.901333 162.901333L674.901333 471.253333z" p-id="6461"></path></svg>