<?xml version="1.0" standalone="no"?><!DOCTYPE svg PUBLIC "-//W3C//DTD SVG 1.1//EN" "http://www.w3.org/Graphics/SVG/1.1/DTD/svg11.dtd"><svg t="1515463470928" class="icon" style="" viewBox="0 0 1024 1024" version="1.1" xmlns="http://www.w3.org/2000/svg" p-id="4460" xmlns:xlink="http://www.w3.org/1999/xlink" width="32" height="32"><defs><style type="text/css"></style></defs><path d="M509.792179 287.906104V0h-250.843767a53.418166 53.418166 0 0 0-53.40457 53.418166v835.547672a53.40457 53.40457 0 0 0 53.40457 53.40457h598.055047a53.40457 53.40457 0 0 0 53.431762-53.40457V376.972636l-292.365548-1.48195c-111.282181-0.013596-108.277494-87.584582-108.277494-87.584582z" p-id="4461"></path><path d="M162.485728 937.897367l4.459444-856.267775A53.431762 53.431762 0 0 0 113.540602 135.047758v835.52048a53.431762 53.431762 0 0 0 53.40457 53.431762h598.082239a53.513337 53.513337 0 0 0 50.698993-36.545694H201.83217s-43.044519 0.190342-39.346442-49.556939zM649.27219 330.066891h261.163031L554.264264 0v240.415736s-14.792305 89.651154 95.007926 89.651155z" p-id="4462"></path></svg>