<?xml version="1.0" standalone="no"?><!DOCTYPE svg PUBLIC "-//W3C//DTD SVG 1.1//EN" "http://www.w3.org/Graphics/SVG/1.1/DTD/svg11.dtd"><svg t="1515463752861" class="icon" style="" viewBox="0 0 1034 1024" version="1.1" xmlns="http://www.w3.org/2000/svg" p-id="7831" xmlns:xlink="http://www.w3.org/1999/xlink" width="32.3125" height="32"><defs><style type="text/css"></style></defs><path d="M153.6 307.2C71.68 307.2 5.12 358.4 5.12 424.96V921.6h204.8v-373.76c0-56.32 40.96-112.64 81.92-153.6C276.48 343.04 220.16 307.2 153.6 307.2z m732.16 0c-66.56 0-122.88 35.84-138.24 87.04 40.96 40.96 81.92 92.16 81.92 153.6V921.6h204.8V424.96C1029.12 358.4 962.56 307.2 885.76 307.2z m-368.64 61.44c81.92 0 148.48-56.32 148.48-122.88 0-66.56-66.56-122.88-148.48-122.88S373.76 179.2 373.76 245.76c0 66.56 61.44 122.88 143.36 122.88zM153.6 5.12C71.68 5.12 5.12 61.44 5.12 128 5.12 194.56 71.68 250.88 153.6 250.88c25.6 0 51.2-5.12 76.8-15.36 5.12-51.2 25.6-97.28 66.56-133.12C276.48 40.96 220.16 5.12 153.6 5.12z m732.16 240.64c81.92 0 148.48-56.32 148.48-122.88S967.68 0 885.76 0c-66.56 0-122.88 35.84-138.24 87.04 35.84 35.84 61.44 81.92 66.56 133.12 15.36 20.48 40.96 25.6 71.68 25.6z m-368.64 179.2c-122.88 0-204.8 81.92-204.8 179.2V1024h409.6v-419.84c0-97.28-81.92-179.2-204.8-179.2z" p-id="7832"></path></svg>