<?xml version="1.0" standalone="no"?><!DOCTYPE svg PUBLIC "-//W3C//DTD SVG 1.1//EN" "http://www.w3.org/Graphics/SVG/1.1/DTD/svg11.dtd"><svg t="1515463836250" class="icon" style="" viewBox="0 0 1024 1024" version="1.1" xmlns="http://www.w3.org/2000/svg" p-id="9204" xmlns:xlink="http://www.w3.org/1999/xlink" width="32" height="32"><defs><style type="text/css"></style></defs><path d="M511.019161 63.057151c-247.451812 0-448.049502 200.63146-448.049502 448.049503 0 247.451812 200.599737 448.050526 448.049502 448.050525 247.38939 0 448.049502-200.599737 448.049502-448.050525 0-247.449765-200.568015-448.049502-448.049502-448.049503zM284.431539 731.355917c-20.128433 0-38.116109-18.049075-38.116109-38.180578 0-20.066011 18.021445-36.931121 38.116109-36.931121 20.094664 0 37.061081 16.868179 37.061081 36.931121 0 20.13048-16.959254 38.180578-37.061081 38.180578z m0-183.188183c-20.128433 0-38.116109-16.929578-38.116109-37.028335 0-20.128433 18.021445-37.093826 38.116109-37.093826 20.094664 0 37.061081 16.930601 37.061081 37.093826 0 20.067035-16.959254 37.028335-37.061081 37.028335z m0-182.131107c-20.128433 0-38.116109-16.930601-38.116109-37.028335 0-20.12741 18.021445-38.116109 38.116109-38.116109 20.094664 0 37.061081 18.022469 37.061081 38.116109 0 20.066011-16.959254 37.028335-37.061081 37.028335z m456.372052 362.152157H419.934676c-19.078521 0-34.951023-15.873526-34.951023-35.012422 0-19.012006 15.874549-34.883485 34.951023-34.883485h320.868915c19.078521 0 34.95 15.873526 34.95 34.883485 0 19.105127-15.904225 35.012422-34.95 35.012422z m0-182.131107H419.934676c-19.078521 0-34.951023-15.873526-34.951023-34.918278 0-19.077497 15.874549-34.980699 34.951023-34.980699h320.868915c19.078521 0 34.95 15.904225 34.95 34.980699 0 19.042705-15.904225 34.918277-34.95 34.918278z m0-183.190229H419.934676c-19.078521 0-34.951023-14.849196-34.951023-33.890878 0-19.077497 15.874549-34.95 34.951023-34.95h320.868915c19.078521 0 34.95 15.874549 34.95 34.95 0 19.042705-15.904225 33.890878-34.95 33.890878z" p-id="9205"></path></svg>