<?xml version="1.0" standalone="no"?><!DOCTYPE svg PUBLIC "-//W3C//DTD SVG 1.1//EN" "http://www.w3.org/Graphics/SVG/1.1/DTD/svg11.dtd"><svg t="1515463806251" class="icon" style="" viewBox="0 0 1024 1024" version="1.1" xmlns="http://www.w3.org/2000/svg" p-id="8538" xmlns:xlink="http://www.w3.org/1999/xlink" width="32" height="32"><defs><style type="text/css"></style></defs><path d="M598.4 892.8s-3.2-3.2-6.4-3.2c-12.8-3.2-28.8-25.6-28.8-51.2v-220.8c0-28.8 12.8-54.4 38.4-70.4 3.2-3.2 6.4-3.2 6.4-6.4 25.6-16 105.6-83.2 102.4-246.4-3.2-73.6-51.2-214.4-198.4-214.4h-6.4c-140.8 0-195.2 115.2-198.4 217.6-3.2 166.4 92.8 236.8 108.8 249.6 3.2 3.2 9.6 12.8 9.6 25.6 0 3.2-9.6 12.8-12.8 12.8-16 12.8-51.2 28.8-86.4 44.8-86.4 38.4-192 83.2-201.6 160 0 6.4-3.2 12.8-6.4 16-9.6 19.2-19.2 48-3.2 76.8 19.2 32 67.2 51.2 156.8 64 57.6 6.4 137.6 9.6 240 9.6 41.6 0 76.8 0 112-3.2 6.4 0 12.8-6.4 12.8-12.8s0-12.8-6.4-16c-16-22.4-28.8-32-32-32z" p-id="8539"></path><path d="M864 566.4h-211.2c-28.8 0-51.2 22.4-51.2 48v220.8c0 12.8 9.6 22.4 12.8 28.8l121.6 83.2c9.6 6.4 16 6.4 22.4 6.4 9.6 0 16-3.2 22.4-9.6l118.4-80c6.4-3.2 16-12.8 16-25.6v-220.8c3.2-32-19.2-51.2-51.2-51.2z m-51.2 227.2c-19.2-6.4-38.4-19.2-41.6-19.2-6.4-6.4-12.8-6.4-19.2-3.2-3.2 0-6.4 3.2-12.8 6.4-9.6 3.2-22.4 9.6-35.2 16 3.2-19.2 6.4-44.8 6.4-44.8 0-3.2 0-9.6-3.2-12.8 0 0-16-19.2-28.8-32 19.2-3.2 41.6-9.6 41.6-9.6 3.2 0 6.4-3.2 9.6-6.4 0 0 19.2-28.8 25.6-44.8l6.4-6.4c9.6 19.2 28.8 44.8 28.8 44.8 3.2 3.2 6.4 6.4 9.6 6.4 0 0 25.6 6.4 44.8 9.6-12.8 16-32 35.2-32 35.2-3.2 3.2-6.4 9.6-3.2 12.8-3.2 3.2 0 28.8 3.2 48z" p-id="8540"></path></svg>